# xmcd
#
# Track frame offsets: 
#        150
#        36722
#        55245
#        71565
#        88482
#        109012
#        135902
#        157477
#        179342
#        199240
#        218117
#        238832
#        261592
#        285792
#        305972
#
# Disc length: 4351 seconds
#
# Revision: 4
# Processed by: cddbd v1.5.2PL0 Copyright (c) Steve Scherf et al.
# Submitted via: ExactAudioCopy v0.95b4
#
DISCID=f310fd0f
DTITLE=Stevie Nicks - Enchanted [CD 2)
DYEAR=1998
DGENRE=Rock
TTITLE0=Edge Of Seventeen (Unreleased Live Performance)
TTITLE1=Street Angel
TTITLE2=Rock A Little (Go Ahead Lily)
TTITLE3=I Sing For The Things
TTITLE4=Rooms On Fire
TTITLE5=I Can't Wait (Extended Rock Mix)
TTITLE6=Two Kinds Of Love
TTITLE7=The Highwayman
TTITLE8=Rose Garden
TTITLE9=Talk To Me
TTITLE10=Destiny
TTITLE11=Ooh My Love
TTITLE12=Desert Angel
TTITLE13=Whole Lotta Trouble
TTITLE14=Has Anyone Ever Written Anything For You
EXTD=THE ENCHANTED WORKS OF STEVIE NICKS (1973 - 1997]\n3 CD-Set\nLabe
EXTD=l: Atlantic - EMI\n7243 5 21085 2 7
EXTT0=
EXTT1=
EXTT2=
EXTT3=
EXTT4=
EXTT5=
EXTT6=
EXTT7=
EXTT8=
EXTT9=
EXTT10=
EXTT11=
EXTT12=
EXTT13=
EXTT14=
PLAYORDER=
